<svg id="Capa_2" data-name="Capa 2" xmlns="http://www.w3.org/2000/svg" viewBox="0 0 602.61 873.69"><defs><style>.cls-1{fill:#fff;}</style></defs><path class="cls-1" d="M774,219.74H683.65V202c0-22.81-18.12-41.37-40.4-41.37h-5C629,113.76,588.47,78.35,540,78.35s-89,35.41-98.25,82.29h-5c-22.27,0-40.39,18.56-40.39,41.37v17.73H306c-37.12,0-67.33,30.93-67.33,68.95v594.4c0,38,30.21,68.95,67.33,68.95H774c37.12,0,67.33-30.93,67.33-68.95V288.69C841.31,250.67,811.11,219.74,774,219.74ZM441.25,206.61H638.76V281.9H441.25V206.61ZM540,124.32c23.51,0,43.59,15.11,51.6,36.32H488.41C496.42,139.43,516.5,124.32,540,124.32ZM796.42,883.09c0,12.67-10.06,23-22.44,23H306c-12.37,0-22.44-10.31-22.44-23V288.69c0-12.68,10.07-23,22.44-23h90.34v20.8c0,22.81,18.12,41.37,40.39,41.37H643.25c22.28,0,40.4-18.56,40.4-41.37V265.7H774c12.38,0,22.45,10.31,22.45,23v594.4Z" transform="translate(-238.7 -78.35)"/></svg>