<svg id="Capa_1" data-name="Capa 1" xmlns="http://www.w3.org/2000/svg" viewBox="0 0 1037.54 1037.54"><defs><style>.cls-1{fill:#66a8dc;}.cls-2{fill:#fff;fill-rule:evenodd;}</style></defs><circle class="cls-1" cx="518.77" cy="518.77" r="518.77"/><g id="People"><g id="Icon-14"><path id="target" class="cls-2" d="M808.09,275.2V238.92l56.13-56.13v22.26a14,14,0,0,0,14,14H900.5L844.38,275.2ZM948.4,555.81a420.52,420.52,0,0,0-87.87-257.08L944.29,215A14,14,0,0,0,934.37,191H892.28v-42.1A14,14,0,0,0,868.33,139l-84.19,84.19a14,14,0,0,0-4.11,9.92v50.31L517.56,545.89a14,14,0,0,0,19.84,19.84l38.81-38.82c4.77,8.17,7.39,17.75,7.39,28.9a56.12,56.12,0,1,1-56.12-56.12,14,14,0,0,0,0-28.06,84.19,84.19,0,1,0,84.18,84.18c0-18.87-5.22-35.61-15.06-49.27L656,447.16a167.06,167.06,0,0,1,39.88,108.65c0,92.85-75.53,168.37-168.37,168.37S359.11,648.66,359.11,555.81s75.53-168.36,168.37-168.36A166.48,166.48,0,0,1,601,404.55a14,14,0,1,0,12.3-25.21,194.23,194.23,0,0,0-85.84-20c-108.32,0-196.43,88.12-196.43,196.43s88.11,196.43,196.43,196.43,196.43-88.11,196.43-196.43a194.89,194.89,0,0,0-48.1-128.49l59.51-59.5c46.85,51.69,72.77,117.8,72.77,188,0,154.74-125.88,280.62-280.61,280.62S246.87,710.55,246.87,555.81,372.75,275.2,527.48,275.2a279.45,279.45,0,0,1,154.16,46.27A14,14,0,1,0,697.07,298a307.36,307.36,0,0,0-169.59-50.9c-170.21,0-308.68,138.47-308.68,308.67S357.27,864.49,527.48,864.49,836.16,726,836.16,555.81c0-77.68-28.87-150.81-81-207.83l44.71-44.72h28.29a392.52,392.52,0,0,1,92.18,252.55c0,216.62-176.24,392.86-392.86,392.86S134.62,772.43,134.62,555.81,310.86,163,527.48,163a391.19,391.19,0,0,1,209.2,60.41,14,14,0,0,0,15-23.74,419.42,419.42,0,0,0-224.17-64.73c-232.1,0-420.92,188.83-420.92,420.92S295.38,976.74,527.48,976.74,948.4,787.91,948.4,555.81Z" transform="translate(-21.23 -21.23)"/></g></g></svg>