<svg id="Capa_1" data-name="Capa 1" xmlns="http://www.w3.org/2000/svg" viewBox="0 0 1037.54 1037.54"><defs><style>.cls-1{fill:#66a8dc;}.cls-2{fill:#fff;}</style></defs><circle class="cls-1" cx="518.77" cy="518.77" r="518.77"/><path class="cls-2" d="M356.43,901V302c24.39-14.86,37.11-38.16,37.11-65.74,0-41.35-33.92-76.33-75.28-76.33-42.4,0-76.32,35-76.32,76.33,0,27.58,14.86,50.88,39.21,65.74V901c0,10.62,7.43,19.1,17,19.1h39.22A19,19,0,0,0,356.43,901Zm37.11-565V679.41c0,20.15,10.62,28.63,23.34,19.1,24.39-18,45.59-31.82,64.66-41.36,39.21-18,66.79-26.49,92.23-27.58,31.82,0,56.18,6.38,80.57,18,23.34,10.62,44.54,27.58,68.9,43.45C737,699.52,754,704.82,773.07,705.9c31.82,2.14,76.33-5.29,128.27-47.69,11.67-9.54,21.2-33.93,21.2-51.94V262.8c0-20.15-8.48-27.58-21.2-18-26.5,20.15-50.89,33.93-72.09,40.3-43.46,11.67-77.38,9.54-106-7.43-24.39-15.9-45.59-32.87-68.9-43.45-24.39-11.67-48.78-18-80.57-18-11.67,0-26.49,3.18-42.4,7.43-28.63,8.48-65.74,26.49-114.49,60.41-12.72,9.53-23.34,32.87-23.34,51.94Z" transform="translate(-21.23 -21.23)"/></svg>