<svg id="Capa_1" data-name="Capa 1" xmlns="http://www.w3.org/2000/svg" viewBox="0 0 1037.54 1037.54"><defs><style>.cls-1{fill:#66a8dc;}.cls-2{fill:#fff;}</style></defs><circle class="cls-1" cx="518.77" cy="518.77" r="518.77"/><path class="cls-2" d="M610.65,391.05l-205-63.39A14.6,14.6,0,1,0,397,355.55l205,63.39a14.6,14.6,0,0,0,8.62-27.89Z" transform="translate(-21.23 -21.23)"/><path class="cls-2" d="M945.37,470.27l-58.11-17.85A14.61,14.61,0,0,0,869,462.09l-5.86,19.09L813.58,466l6.91-22.67a14.61,14.61,0,0,0-9.7-18.22L701.24,391.68l3.8-12.46a14.6,14.6,0,0,0-9.7-18.22L298.86,239.88l1.11-3.66a14.59,14.59,0,0,0-9.7-18.21l-78.7-24a14.6,14.6,0,0,0-18.23,9.71L125,428.05a14.6,14.6,0,0,0,9.7,18.22l78.7,24a14.49,14.49,0,0,0,4.27.64,14.58,14.58,0,0,0,14-10.34L232.7,457l287.58,87.86A53.46,53.46,0,0,0,532,631.93l-230.7,316.9A14.6,14.6,0,1,0,324.89,966L541.77,668.09V957.42a14.6,14.6,0,1,0,29.19,0V668.09L787.84,966a14.6,14.6,0,0,0,23.61-17.18l-230.7-316.9a53.41,53.41,0,0,0,27.63-60.19l20.78,6.35a14.6,14.6,0,0,0,18.23-9.71L651.18,556,760.71,589.4A14.43,14.43,0,0,0,765,590a14.6,14.6,0,0,0,14-10.34l6.9-22.65,49.38,15.09-6.45,21a14.6,14.6,0,0,0,9.67,18.24l58.11,17.85a14.44,14.44,0,0,0,4.28.65,14.6,14.6,0,0,0,13.95-10.32l40.26-131A14.61,14.61,0,0,0,945.37,470.27ZM207.92,438.13l-50.79-15.52L217,226.15l50.78,15.51ZM556.37,608.64a24.33,24.33,0,1,1,24.32-24.33A24.36,24.36,0,0,1,556.37,608.64Zm-306.69-177,49.14-161.25L672.87,384.66,623.72,545.9ZM755.27,557.21,660.5,528.27l33-108.42,94.77,28.95-11.19,36.72-15,49a.09.09,0,0,0,0,.05ZM805.07,494l48.76,14.89L843.12,544l-48.77-14.9ZM891.16,597,861,587.76l31.68-103.14,30.2,9.27Z" transform="translate(-21.23 -21.23)"/></svg>